<?xml version="1.0" encoding="UTF-8" standalone="no"?>
<svg xmlns="http://www.w3.org/2000/svg" height="32" width="32" version="1.1" viewBox="0 0 32 32">
 <path style="block-progression:tb;color:#000000;text-transform:none;text-indent:0" d="M 23.900391 0.29101562 C 23.363193 0.31476992 22.646424 0.42534596 21.691406 0.57226562 L 4.7636719 3.1777344 C 0.94579916 3.7651108 0.9453125 3.7662592 0.9453125 7.5214844 L 0.9453125 24.539062 C 0.9453125 28.330987 0.94512973 28.332179 4.7148438 28.912109 L 21.734375 31.529297 C 25.511359 32.110399 25.511719 32.110791 25.511719 28.333984 L 25.511719 3.7539062 C 25.511719 0.92728281 25.511983 0.21975265 23.900391 0.29101562 z M 27.402344 1.8203125 C 26.878879 1.8203125 26.457031 2.2402073 26.457031 2.7636719 L 26.457031 29.220703 C 26.457031 29.744168 26.878879 30.166016 27.402344 30.166016 C 27.925808 30.166016 28.345703 29.744168 28.345703 29.220703 L 28.345703 2.7636719 C 28.345703 2.2402073 27.925808 1.8203125 27.402344 1.8203125 z M 30.181641 3.8203125 C 29.658176 3.8203125 29.236328 4.2402073 29.236328 4.7636719 L 29.236328 27.441406 C 29.236328 27.964871 29.658176 28.386719 30.181641 28.386719 C 30.705105 28.386719 31.126953 27.964871 31.126953 27.441406 L 31.126953 4.7636719 C 31.126953 4.2402073 30.705105 3.8203125 30.181641 3.8203125 z M 12.841797 8.0058594 C 13.615946 8.0757584 14.346589 8.363669 14.933594 8.8476562 C 15.731108 9.505294 16.185547 10.460112 16.185547 11.492188 C 16.185547 12.524299 15.731108 13.526741 14.933594 14.269531 C 14.15092 14.998451 13.11233 15.407814 12.056641 15.416016 L 14.070312 15.400391 C 18.412117 15.366371 20.757812 17.398129 20.757812 21.498047 C 20.757812 23.769392 18.658999 25.375921 16.185547 25.113281 L 8.3085938 24.277344 C 6.3772884 24.072115 4.890625 22.407787 4.890625 20.537109 C 4.890625 17.160442 6.5615561 15.459458 10.138672 15.431641 L 12.056641 15.416016 C 11.027692 15.423616 10.064214 15.051488 9.3691406 14.388672 C 8.6861539 13.737384 8.3085937 12.848979 8.3085938 11.912109 C 8.3085938 10.97524 8.6861539 10.048376 9.3691406 9.3242188 C 10.064214 8.5872109 11.027692 8.1115861 12.056641 8.0097656 C 12.320563 7.9836866 12.583747 7.9825674 12.841797 8.0058594 z " fill="#FFF"/>
</svg>
